<?xml version="1.0" standalone="no"?>
<!DOCTYPE svg PUBLIC "-//W3C//DTD SVG 20010904//EN"
 "http://www.w3.org/TR/2001/REC-SVG-20010904/DTD/svg10.dtd">
<svg version="1.0" xmlns="http://www.w3.org/2000/svg"
 width="2569.000000pt" height="516.000000pt" viewBox="0 0 2569.000000 516.000000"
 preserveAspectRatio="xMidYMid meet">

<g transform="translate(0.000000,516.000000) scale(0.100000,-0.100000)"
fill="#000000" stroke="none">
<path d="M18717 4676 c-65 -24 -78 -41 -123 -168 -32 -89 -64 -148 -168 -303
-345 -520 -847 -1049 -1269 -1340 -56 -38 -112 -85 -124 -104 -41 -61 -24
-159 41 -232 36 -41 70 -60 123 -68 l48 -7 -3 -44 c-4 -62 27 -222 52 -267 27
-48 76 -76 135 -77 25 0 123 6 216 13 185 15 610 10 627 -7 24 -24 -237 -577
-279 -593 -12 -4 -86 -4 -165 2 -329 23 -386 12 -433 -81 l-26 -51 16 -87 c41
-224 87 -408 112 -453 42 -79 129 -116 217 -94 59 15 93 40 129 93 15 22 35
43 45 46 9 3 105 14 212 26 273 29 555 65 830 106 294 43 816 131 853 144 38
13 50 -1 136 -163 104 -194 147 -230 266 -230 154 1 239 112 280 367 11 69 10
88 -6 163 -21 96 -51 156 -117 237 -82 99 -342 320 -566 481 -80 58 -104 80
-94 86 8 5 233 11 499 14 529 7 545 9 593 65 74 89 55 202 -52 305 l-54 52 43
24 c49 27 77 71 110 167 26 77 58 117 107 133 102 33 136 65 157 147 9 36 9
57 -1 95 -26 99 -47 113 -233 163 -162 43 -362 112 -474 163 -239 110 -560
330 -761 521 -88 83 -228 246 -252 291 -14 28 -13 32 7 61 51 71 40 184 -23
245 -54 52 -118 74 -400 138 -175 39 -178 39 -231 21z m275 -201 c206 -49 248
-65 248 -95 0 -25 -48 -56 -101 -64 -21 -3 -39 -9 -39 -12 0 -11 119 -180 187
-264 185 -232 416 -431 723 -623 240 -150 439 -237 750 -326 138 -40 165 -51
165 -66 0 -14 -14 -25 -50 -38 -98 -36 -155 -99 -201 -220 -15 -40 -31 -76
-35 -80 -8 -10 -189 88 -319 171 -112 72 -253 177 -365 271 -332 280 -722 739
-876 1035 l-57 109 -62 -94 c-243 -363 -558 -709 -932 -1022 -197 -165 -418
-315 -678 -461 l-135 -76 -23 27 c-13 14 -20 29 -15 32 4 4 61 45 126 91 152
108 241 182 410 342 322 304 627 666 851 1007 107 163 148 238 181 332 21 59
31 76 43 73 10 -2 101 -24 204 -49z m105 -661 c73 -105 190 -252 274 -347 l61
-67 -69 -78 c-37 -42 -80 -93 -95 -112 l-27 -34 -345 -4 c-190 -3 -396 -1
-458 3 l-113 7 186 186 c178 179 322 343 439 500 63 85 45 92 147 -54z m651
-701 c123 -100 192 -163 192 -175 0 -10 -1 -19 -2 -20 -12 -7 -1914 -11 -1920
-4 -3 5 -9 29 -13 54 -4 24 -9 50 -11 56 -4 9 15 9 78 0 59 -9 255 -13 669
-13 l587 -1 108 130 c59 72 110 130 114 130 3 0 92 -70 198 -157z m298 -471
l-102 -127 -1135 -3 c-1081 -2 -1312 2 -1356 26 -12 7 14 27 108 82 68 40 164
100 212 132 l88 59 39 -35 c37 -34 83 -50 132 -46 13 0 451 4 973 8 935 7 951
7 995 28 25 11 51 28 58 37 13 15 17 14 52 -9 l39 -26 -103 -126z m506 -257
c83 -68 115 -106 103 -126 -4 -5 -355 -9 -879 -9 l-874 0 -138 -202 c-276
-406 -324 -469 -528 -707 l-21 -24 275 7 c531 13 1327 61 1349 82 5 5 -120
174 -218 294 -47 58 -132 153 -188 211 -57 59 -103 111 -103 116 0 6 7 16 15
23 12 10 26 5 77 -26 175 -105 364 -242 560 -406 309 -259 361 -353 309 -558
-25 -99 -47 -140 -85 -159 -25 -12 -31 -11 -54 6 -14 11 -61 84 -104 164 -97
178 -144 250 -160 244 -7 -2 -123 -24 -258 -49 -538 -100 -1200 -193 -1710
-241 -90 -9 -165 -17 -167 -19 -2 -1 -14 -29 -27 -62 -42 -104 -80 -100 -109
12 -25 100 -78 367 -73 371 2 2 114 0 248 -6 134 -6 260 -8 279 -5 32 5 39 14
96 117 122 222 182 356 360 805 7 16 -838 17 -987 1 -56 -6 -103 -9 -105 -7
-3 2 -11 35 -19 72 l-14 68 37 -7 c111 -22 269 -24 1378 -25 l1211 0 111 140
111 141 108 -83 c59 -46 147 -114 194 -153z m-1394 -345 c6 -92 12 -102 101
-195 131 -135 262 -288 254 -296 -21 -20 -913 -62 -913 -43 0 3 42 65 93 137
52 73 138 197 192 277 55 80 104 148 109 153 6 4 45 6 86 5 l75 -3 3 -35z"/>
<path d="M15255 4651 c-50 -12 -75 -30 -104 -75 l-27 -43 13 -154 c14 -172 22
-513 11 -524 -3 -4 -267 -9 -585 -12 -642 -6 -1102 6 -1224 32 -116 25 -186
-1 -229 -85 -20 -38 -20 -41 -2 -163 23 -156 38 -184 116 -215 50 -20 64 -22
104 -13 26 6 166 16 312 22 322 13 1525 8 1540 -7 6 -6 15 -48 20 -95 6 -46
13 -91 15 -100 3 -8 -1 -23 -8 -33 -12 -16 -18 -13 -81 39 -87 70 -121 88
-171 88 -72 0 -136 -50 -247 -195 l-51 -66 -166 -7 c-91 -4 -323 -5 -516 -2
-292 5 -365 10 -439 26 -80 17 -94 17 -137 5 -56 -17 -105 -67 -115 -118 -8
-46 23 -231 47 -278 21 -41 45 -60 101 -77 29 -10 53 -9 125 5 113 22 454 26
475 6 10 -10 13 -93 13 -390 0 -207 -3 -389 -8 -404 -6 -21 -17 -30 -60 -42
-97 -29 -371 -85 -547 -111 -206 -30 -250 -47 -280 -105 -11 -22 -24 -40 -28
-40 -5 0 -18 13 -30 30 -26 35 -88 68 -187 100 -207 67 -422 216 -655 456
-124 128 -293 339 -287 359 5 15 168 23 539 24 201 1 358 5 388 12 96 20 159
106 145 197 -13 90 -25 103 -265 307 -181 153 -229 185 -280 185 -72 -1 -111
-30 -209 -158 l-92 -120 -104 -7 c-106 -7 -231 0 -256 15 -11 8 -14 45 -14
194 0 122 4 189 11 196 8 8 148 13 445 17 239 3 451 9 472 14 56 15 104 62
122 122 31 105 -4 158 -239 357 -229 193 -261 210 -347 181 -42 -14 -74 -46
-159 -163 l-63 -87 -55 -7 c-65 -8 -161 1 -176 16 -13 13 -16 350 -3 390 4 14
27 39 50 55 60 43 100 124 93 188 -8 71 -42 125 -101 158 -41 23 -90 35 -264
64 -134 23 -228 34 -251 30 -55 -9 -98 -40 -116 -82 -9 -21 -20 -44 -23 -52
-4 -8 -3 -44 2 -80 10 -79 -2 -116 -36 -108 -12 2 -83 22 -157 42 -83 24 -156
38 -191 38 -99 0 -149 -50 -163 -163 -9 -73 -45 -256 -58 -300 -24 -77 -42
-125 -49 -134 -4 -5 -31 14 -61 41 -118 109 -156 124 -243 95 -38 -13 -58 -16
-62 -8 -12 19 -15 171 -4 211 8 31 20 45 52 63 31 18 47 37 66 79 60 130 -18
261 -175 294 -31 6 -131 22 -222 34 -223 30 -273 18 -322 -79 -20 -38 -20 -45
-7 -185 18 -197 19 -575 1 -593 -19 -19 -196 -15 -306 6 -138 27 -207 5 -248
-79 l-22 -44 23 -113 c12 -62 32 -130 43 -150 40 -71 108 -85 284 -59 102 16
144 10 144 -19 0 -10 -14 -74 -31 -142 -53 -213 -70 -275 -94 -338 -9 -25 -22
-67 -30 -95 -38 -138 -165 -445 -291 -703 -97 -202 -110 -240 -99 -291 22
-103 204 -183 289 -128 44 29 174 208 331 456 24 39 29 42 38 26 7 -13 6 -217
-3 -645 l-13 -628 27 -49 c32 -59 64 -79 149 -97 52 -11 78 -11 156 0 174 26
249 91 259 224 l5 72 44 19 c56 24 324 205 463 313 118 91 363 330 460 449 45
56 66 75 74 67 15 -15 13 -404 -4 -732 l-13 -256 27 -56 c32 -64 73 -92 160
-106 52 -8 213 3 275 20 53 14 98 51 128 105 l28 50 -5 190 c-8 289 -3 726 8
737 6 6 34 -26 76 -86 198 -284 358 -450 605 -626 142 -101 189 -113 278 -66
30 15 35 23 110 182 19 42 49 69 114 101 45 24 59 37 85 87 17 32 34 54 36 50
3 -5 16 -40 28 -79 70 -214 136 -372 174 -413 58 -65 160 -83 243 -43 57 26
84 63 113 152 l22 65 101 33 c260 85 793 287 1117 423 183 77 414 190 533 261
l77 46 14 -22 c7 -12 37 -67 66 -122 214 -406 489 -707 774 -850 152 -76 277
-102 373 -76 141 38 220 170 187 312 -17 73 -32 102 -79 159 -24 29 -35 51
-32 64 3 12 39 185 82 386 81 389 84 421 45 485 -24 38 -102 76 -159 77 -48 0
-125 -33 -145 -64 -8 -12 -51 -106 -94 -208 -115 -267 -151 -340 -169 -347
-49 -19 -269 312 -378 567 -115 269 -185 534 -224 850 -31 250 -37 348 -19
355 8 3 251 9 539 13 l524 7 44 25 c32 18 52 39 69 73 50 97 21 190 -93 291
-184 166 -314 270 -364 293 -40 19 -57 34 -67 59 -43 104 -208 211 -454 295
-65 22 -106 42 -130 65 -68 64 -126 80 -410 109 -158 16 -152 16 -195 6z
m-3687 -196 c90 -14 180 -31 200 -38 73 -24 43 -77 -71 -126 l-47 -20 0 -346
0 -345 240 0 240 0 101 135 c90 120 104 134 118 122 9 -7 70 -58 136 -113 181
-150 230 -198 222 -217 -6 -16 -50 -17 -532 -17 l-525 0 2 -372 3 -373 305 0
305 0 109 140 c59 77 111 139 113 139 12 -3 262 -214 327 -276 109 -104 143
-98 -541 -98 -452 0 -573 -3 -573 -12 0 -23 117 -255 161 -320 164 -243 429
-503 679 -668 121 -79 180 -108 313 -155 93 -33 107 -41 107 -60 0 -17 -10
-26 -44 -39 -68 -26 -118 -82 -168 -186 l-43 -91 -75 52 c-243 166 -422 357
-625 664 -149 225 -245 413 -320 628 -15 43 -29 76 -30 75 -2 -2 14 -1526 17
-1641 0 -16 -6 -36 -15 -44 -32 -32 -244 -46 -267 -18 -10 12 -10 51 -1 188 9
138 31 1099 31 1327 l-1 55 -32 -54 c-234 -390 -503 -705 -812 -946 -44 -35
-147 -108 -230 -164 l-149 -101 -21 20 -20 21 25 21 c168 136 377 347 516 518
131 162 341 470 434 640 47 85 140 275 140 287 0 7 -672 -4 -706 -12 l-31 -7
-15 76 c-8 42 -15 76 -14 76 1 0 33 -7 71 -16 54 -12 156 -17 438 -21 l367 -6
0 377 0 376 -271 -2 -271 -3 -68 -107 c-90 -141 -310 -428 -328 -428 -3 0 -13
7 -23 16 -17 15 -15 23 46 144 118 236 180 393 266 679 53 176 89 339 89 402
0 24 5 42 14 45 12 5 255 -56 351 -88 35 -11 40 -17 40 -43 0 -27 -5 -32 -60
-53 -33 -12 -66 -26 -74 -30 -8 -5 -46 -84 -86 -177 -39 -94 -81 -189 -93
-212 -12 -23 -22 -45 -22 -48 0 -3 111 -5 246 -5 l246 0 -4 455 c-3 404 -2
454 12 451 8 -3 88 -17 178 -31z m4031 9 c98 -13 151 -32 151 -54 0 -19 -46
-51 -102 -72 l-58 -21 0 -197 c0 -108 3 -252 7 -318 l6 -122 303 0 303 0 80
98 c43 53 99 119 123 145 l43 48 182 -156 c100 -86 185 -165 188 -176 16 -50
26 -49 -620 -49 l-603 0 4 -57 c32 -421 56 -625 100 -823 91 -407 277 -827
478 -1076 65 -81 272 -281 281 -272 13 13 220 452 276 586 35 83 68 152 74
152 34 -1 32 -20 -51 -419 -46 -223 -84 -412 -84 -421 0 -16 19 -44 95 -138
46 -57 48 -107 7 -153 -102 -114 -434 50 -689 340 -220 251 -395 571 -533 977
-100 293 -175 715 -205 1154 -3 47 -8 100 -11 118 l-5 32 -897 0 c-811 0 -973
-4 -1116 -25 l-43 -7 -12 78 c-6 42 -9 79 -7 81 2 3 46 -3 98 -13 84 -16 179
-18 1031 -22 l939 -3 -7 168 c-12 328 -25 578 -32 612 l-6 34 104 -7 c57 -4
151 -14 208 -22z m-5719 -9 c208 -25 290 -48 290 -79 0 -22 -36 -48 -92 -66
l-53 -17 -3 -357 -2 -356 58 0 58 0 62 78 c34 42 73 90 86 106 l24 29 84 -71
c194 -166 231 -211 192 -226 -9 -3 -139 -6 -290 -6 l-274 0 0 -224 0 -223 86
-53 c168 -103 315 -228 354 -300 23 -43 29 -91 19 -154 -26 -156 -124 -262
-184 -196 -10 11 -33 77 -52 147 -41 150 -91 263 -171 382 l-57 86 -3 -45 c-1
-25 1 -490 6 -1035 4 -545 4 -997 0 -1006 -11 -24 -62 -39 -153 -46 -65 -5
-83 -3 -93 10 -10 12 -11 114 -2 524 15 729 29 1345 36 1518 l5 150 -64 -175
c-172 -470 -276 -675 -499 -987 -45 -62 -85 -113 -90 -113 -5 0 -18 5 -28 10
-18 10 -13 22 65 181 196 399 337 785 430 1174 31 131 75 342 75 361 0 25
-388 15 -471 -11 -14 -5 -20 6 -33 64 -9 39 -16 74 -16 79 0 5 28 2 63 -5 38
-9 150 -17 290 -20 l227 -6 0 279 c0 258 -13 555 -26 597 -7 21 -10 21 146 2z
m6046 -136 c153 -52 267 -108 326 -159 38 -33 48 -50 57 -90 23 -108 -32 -240
-100 -240 -25 0 -39 16 -121 138 -65 96 -124 169 -200 246 -91 92 -106 111
-97 127 5 11 11 19 13 19 2 0 57 -18 122 -41z m-91 -299 c21 -25 55 -71 77
-102 l39 -58 -91 0 -90 0 0 99 c0 55 -3 107 -7 117 -6 16 -5 16 14 3 11 -8 37
-34 58 -59z m-4625 -210 c0 -51 -19 -75 -41 -53 -9 9 23 103 36 103 3 0 5 -23
5 -50z m-840 -501 c0 -14 -102 -209 -110 -209 -3 0 -20 9 -37 20 l-33 20 0 90
0 90 90 0 c61 0 90 -4 90 -11z m838 -191 l2 -197 -57 -7 c-75 -9 -472 1 -483
12 -6 6 18 44 57 94 37 46 96 127 131 180 36 52 69 101 75 108 7 9 44 12 141
10 l131 -3 3 -197z m3844 -45 c155 -129 259 -234 256 -257 -3 -21 -7 -21 -415
-24 l-413 -2 0 -525 c0 -353 3 -525 10 -525 40 0 693 193 829 245 52 19 95 34
96 33 1 -2 7 -13 14 -25 10 -20 5 -25 -79 -73 -277 -158 -953 -435 -1539 -630
-129 -43 -237 -84 -241 -91 -4 -8 -10 -38 -14 -68 -11 -82 -30 -121 -60 -121
-15 0 -31 9 -40 23 -16 24 -65 153 -126 334 -38 112 -38 113 -17 117 12 3 108
18 212 35 220 36 355 65 548 118 l137 38 0 558 0 559 -302 -5 c-184 -2 -328
-9 -366 -17 -35 -7 -65 -10 -68 -8 -2 3 -11 40 -18 82 -13 77 -13 78 8 72 104
-30 227 -36 738 -36 l527 0 60 78 c55 73 159 192 167 192 2 0 45 -35 96 -77z
m278 -608 c21 -82 47 -176 59 -208 l20 -58 -22 -9 c-145 -60 -712 -235 -729
-224 -10 6 -11 638 -1 647 4 4 148 6 321 5 l314 -3 38 -150z m-4360 -42 c-89
-160 -320 -491 -448 -643 -86 -101 -318 -337 -326 -330 -6 8 -12 728 -5 734 3
3 21 -2 40 -11 19 -9 62 -19 97 -21 134 -9 237 83 296 265 10 30 24 54 34 56
9 3 91 5 180 6 l164 1 -32 -57z"/>
<path d="M23413 4630 c-78 -18 -116 -71 -117 -160 0 -30 6 -163 13 -295 14
-249 12 -918 -3 -932 -10 -11 -513 -10 -598 0 -36 5 -74 14 -84 21 -17 13 -16
17 17 72 34 57 37 59 112 85 89 30 124 53 151 98 46 79 36 170 -26 249 -38 47
-269 247 -311 269 -34 17 -91 19 -132 3 -16 -6 -60 -40 -96 -76 -37 -35 -71
-64 -77 -64 -5 0 -12 10 -16 23 -8 30 -6 208 2 228 4 9 27 32 52 50 108 83
122 217 31 308 -51 51 -106 68 -280 86 -80 9 -171 20 -201 24 -94 15 -175 -20
-211 -91 -21 -41 -21 -41 -3 -152 18 -115 27 -496 12 -512 -17 -17 -170 -16
-299 2 -74 10 -154 17 -177 17 -58 -3 -102 -30 -131 -82 l-23 -43 17 -112 c22
-148 42 -183 117 -213 52 -21 61 -22 139 -11 115 16 714 17 730 1 26 -26 -233
-418 -475 -718 -102 -126 -279 -309 -418 -432 -124 -110 -137 -127 -145 -192
-14 -121 129 -260 238 -231 39 11 203 117 341 222 56 42 79 55 85 46 4 -7 6
-297 5 -644 -4 -613 -3 -632 16 -670 35 -69 83 -98 189 -112 132 -19 282 15
334 74 21 24 54 91 63 127 5 22 11 27 24 22 83 -36 95 -37 217 -25 77 7 525
13 1260 16 706 4 1155 10 1180 16 51 13 110 72 124 125 12 46 6 92 -19 143
-29 57 -381 390 -450 425 -46 24 -108 23 -153 -1 -32 -17 -163 -156 -239 -254
l-27 -35 -115 0 c-63 0 -118 4 -123 8 -10 11 -17 1179 -8 1344 5 87 11 123 20
127 7 2 204 8 437 11 411 7 424 8 474 30 43 19 55 31 77 76 38 75 33 141 -15
205 -44 59 -389 359 -447 389 -42 21 -123 15 -161 -13 -14 -11 -67 -72 -118
-138 -51 -65 -101 -122 -110 -126 -26 -10 -125 -9 -142 2 -13 8 -16 64 -18
377 -2 202 -1 409 3 460 l7 92 49 35 c80 58 111 141 85 230 -19 65 -71 116
-142 139 -27 9 -110 23 -184 32 -74 9 -165 20 -202 25 -75 11 -80 11 -125 0z
m260 -180 c160 -19 227 -35 241 -59 14 -22 -16 -52 -84 -83 l-70 -33 0 -602 0
-603 205 0 204 0 117 150 116 149 117 -98 c64 -54 154 -134 201 -178 128 -121
160 -113 -451 -113 l-509 0 0 -910 0 -910 243 0 242 0 72 88 c39 48 100 118
135 156 l64 69 81 -71 c45 -39 134 -123 199 -186 102 -98 116 -116 105 -130
-11 -14 -141 -16 -1209 -19 -779 -3 -1214 -8 -1247 -14 -27 -6 -51 -9 -53 -8
-7 7 -34 137 -29 142 3 2 43 -1 89 -7 49 -7 276 -14 556 -17 l472 -5 0 911 0
911 -302 0 c-198 0 -352 -5 -443 -15 -77 -8 -141 -15 -142 -15 -4 0 -33 143
-29 147 2 2 28 -1 57 -7 34 -8 203 -14 457 -17 l402 -5 0 564 c0 492 -8 736
-25 816 -7 28 -2 28 218 2z m-1648 -16 c169 -17 200 -27 200 -64 0 -20 -10
-30 -51 -51 -29 -14 -61 -29 -73 -32 -21 -5 -21 -8 -21 -301 l0 -296 110 0
110 0 98 101 97 101 119 -101 c203 -173 205 -187 30 -230 l-68 -16 -97 -162
c-110 -185 -190 -301 -313 -458 -47 -60 -86 -119 -86 -130 0 -17 23 -27 150
-68 177 -57 404 -166 473 -227 65 -57 89 -108 95 -197 5 -81 -10 -150 -40
-188 -40 -51 -82 -23 -182 118 -114 160 -251 294 -439 428 l-58 41 1 -898 c1
-495 1 -905 1 -912 -2 -24 -67 -42 -151 -42 -138 0 -123 -107 -115 843 l8 822
-92 -85 c-130 -120 -273 -235 -419 -336 l-126 -87 -23 29 -23 29 62 54 c123
106 395 388 489 506 227 284 401 550 535 817 41 81 74 150 74 154 0 8 -993 -3
-1046 -11 l-41 -7 -13 67 c-7 36 -10 68 -8 71 3 2 58 -2 122 -11 71 -9 194
-15 312 -15 l194 0 0 258 c0 236 -7 355 -26 470 l-7 44 44 -6 c24 -3 111 -13
194 -22z m405 -1542 c12 -37 12 -45 0 -52 -14 -9 -29 -3 -64 23 -19 14 -18 15
9 51 31 41 36 39 55 -22z m858 -88 l22 -6 0 -728 c0 -654 -2 -728 -16 -734
-29 -11 -566 -6 -708 6 -163 15 -281 17 -313 5 l-23 -8 0 503 0 502 60 -59
c34 -33 97 -110 141 -172 43 -62 92 -121 108 -133 120 -85 240 -78 324 20 51
60 78 138 84 240 13 215 -75 364 -284 480 -45 25 -79 48 -75 52 7 6 126 23
217 31 73 6 440 7 463 1z"/>
<path d="M838 3765 c-122 -25 -203 -85 -245 -185 -24 -56 -21 -185 6 -245 61
-138 193 -200 362 -170 45 7 87 11 94 8 8 -2 18 -26 22 -51 10 -60 10 -1635
-1 -1722 -10 -87 -14 -92 -57 -79 -47 14 -195 15 -244 1 -79 -22 -130 -65
-165 -135 -28 -57 -32 -76 -33 -149 0 -97 14 -139 70 -199 50 -54 117 -87 208
-102 65 -12 90 -11 191 4 306 47 508 47 828 0 113 -17 136 -17 193 -5 77 16
112 36 177 103 42 42 52 60 67 120 12 49 14 81 9 104 -5 17 -13 50 -19 73 -14
54 -81 129 -142 160 -59 29 -196 46 -309 37 l-77 -6 -6 108 c-4 60 -7 206 -7
325 l0 218 31 6 c43 8 159 6 184 -3 19 -8 20 -17 20 -187 0 -176 0 -180 28
-236 53 -108 148 -162 283 -161 76 1 140 22 199 67 69 53 120 203 104 307 -38
252 -55 532 -39 644 l13 89 23 -45 c28 -56 91 -115 153 -142 65 -29 198 -29
262 0 68 30 116 78 149 149 17 35 33 64 36 64 3 0 19 -7 37 -17 58 -30 146
-43 211 -32 32 6 61 8 64 4 26 -26 26 -1125 0 -1151 -10 -9 -27 -10 -68 -3
-38 6 -73 4 -121 -6 -149 -31 -227 -125 -232 -278 -3 -107 8 -142 61 -199 103
-110 189 -128 470 -97 207 22 238 21 491 -7 148 -17 229 -10 304 26 39 19 40
19 77 0 63 -32 151 -41 280 -30 278 25 339 26 524 7 100 -10 186 -18 191 -19
34 -3 172 25 203 41 51 26 126 109 142 157 8 21 14 73 14 116 0 66 -5 85 -33
142 -34 69 -60 94 -137 128 -45 19 -126 25 -224 15 -23 -2 -25 2 -32 53 -17
136 -12 731 7 845 36 207 84 286 197 320 61 18 99 19 167 4 57 -12 73 -27 46
-42 -32 -18 -94 -78 -116 -113 -44 -72 -56 -123 -48 -207 17 -175 130 -292
319 -330 110 -22 258 15 353 87 l34 26 6 -67 c4 -38 7 -97 7 -133 2 -371 201
-753 477 -916 185 -109 277 -140 501 -167 156 -20 362 9 532 75 100 38 261
131 333 193 152 130 252 306 270 477 4 31 7 60 9 65 8 31 -27 155 -58 204
l-23 37 31 28 c46 43 66 98 77 211 12 112 3 246 -24 379 -47 226 -178 438
-361 584 -303 241 -776 284 -1142 102 -159 -79 -312 -216 -412 -370 -29 -45
-56 -82 -60 -82 -4 0 -17 30 -29 68 -60 182 -185 320 -376 414 -230 114 -538
108 -781 -13 l-81 -41 -36 25 c-49 33 -143 49 -210 36 -70 -13 -143 -13 -257
0 -223 25 -377 -44 -426 -192 -23 -68 -16 -206 13 -262 57 -109 200 -169 335
-142 31 6 39 4 47 -11 22 -42 31 -1125 10 -1147 -3 -3 -28 -1 -55 4 -51 10
-108 2 -196 -25 -43 -14 -50 -14 -80 2 -22 12 -67 20 -138 23 l-105 6 -8 140
c-4 77 -5 336 -2 575 4 239 6 449 5 467 0 17 4 79 9 136 17 173 -12 286 -91
358 l-41 38 36 40 c50 55 76 110 91 192 11 57 11 80 0 134 -36 171 -139 278
-304 313 -73 16 -90 17 -149 5 -36 -8 -90 -26 -119 -40 -193 -97 -268 -349
-160 -542 16 -29 27 -55 24 -58 -2 -3 -40 -9 -83 -14 -43 -6 -102 -21 -132
-35 -74 -33 -78 -27 -61 86 36 231 30 378 -16 457 -92 158 -203 193 -549 173
-88 -5 -366 -17 -617 -25 -358 -13 -491 -14 -610 -5 -149 10 -427 36 -478 44
-14 3 -55 -2 -92 -9z m952 -258 c-13 -23 -43 -68 -66 -100 -23 -31 -48 -73
-54 -93 -7 -20 -21 -45 -31 -55 -19 -19 -39 -79 -39 -120 0 -14 -22 -67 -50
-118 -50 -92 -74 -171 -51 -171 6 0 24 21 39 46 15 25 32 52 37 60 7 10 10
-55 11 -203 0 -133 5 -234 12 -259 12 -42 41 -64 85 -64 32 0 41 -10 61 -62
20 -54 96 -157 129 -175 12 -7 31 -12 42 -13 18 0 20 8 23 91 l3 92 -33 28
-33 28 48 1 c45 0 83 -13 99 -35 5 -6 8 -6 8 -1 0 6 6 2 14 -9 12 -17 14 -14
29 29 9 26 28 57 42 68 45 35 59 75 60 175 2 87 4 95 45 169 82 150 109 186
133 179 27 -8 64 -50 72 -83 4 -16 -2 -32 -20 -54 -48 -57 -67 -107 -72 -192
-6 -79 -5 -81 13 -64 29 25 74 41 74 25 0 -7 -5 -18 -11 -24 -34 -34 -29 -349
11 -685 24 -193 20 -265 -17 -309 -40 -48 -137 -55 -198 -15 -37 25 -45 76
-42 277 3 255 -6 269 -190 290 -100 11 -238 6 -306 -12 -57 -15 -70 -43 -75
-170 -3 -60 -8 -109 -12 -109 -5 0 -23 18 -40 39 -44 53 -80 59 -126 23 -19
-15 -34 -31 -34 -37 0 -19 49 -160 49 -143 2 38 21 23 67 -52 45 -75 49 -79
66 -63 14 13 18 13 18 2 4 -124 21 -342 30 -370 23 -80 119 -127 229 -114 l56
6 -30 -26 c-34 -30 -29 -46 25 -82 26 -18 47 -23 101 -23 66 0 68 1 98 37 16
20 27 41 24 46 -3 6 -1 7 5 3 37 -23 33 -146 -5 -177 -14 -12 -15 -12 -9 -1 6
10 3 13 -10 10 -11 -2 -18 -11 -18 -21 1 -9 -2 -15 -6 -12 -5 3 -10 0 -12 -7
-5 -13 -163 -16 -176 -3 -4 3 4 14 16 24 23 17 23 17 -64 61 -48 25 -91 46
-95 48 -4 2 -11 -13 -15 -32 -8 -45 -19 -52 -47 -32 -12 9 -43 31 -69 48 -27
17 -48 39 -48 48 0 9 -5 32 -12 51 l-12 34 -7 -30 c-4 -16 -7 -65 -8 -107 l-1
-78 -70 0 -70 0 5 142 c4 128 3 140 -10 111 -20 -47 -46 -56 -131 -48 -41 4
-76 10 -79 14 -2 4 11 23 30 41 19 18 33 36 31 39 -2 3 8 6 23 7 29 1 81 30
81 45 0 16 -37 9 -64 -12 -15 -12 -29 -20 -31 -18 -2 2 1 24 5 49 5 25 9 79
10 121 0 42 3 91 6 108 6 29 10 32 38 29 l31 -3 -1 95 c-1 52 -11 142 -22 200
-12 58 -23 130 -26 160 -3 30 -5 55 -6 55 0 0 -3 111 -5 246 l-5 247 34 29
c19 16 42 45 52 65 l17 36 -52 81 -52 81 -9 177 c-7 160 -7 178 8 190 10 6 64
40 122 74 155 92 249 156 300 205 35 33 54 43 85 46 22 2 42 2 44 0 3 -1 -6
-21 -19 -45z m871 -248 c56 -29 64 -31 129 -25 41 4 77 3 88 -3 13 -7 33 -6
67 4 26 8 59 15 72 15 20 0 24 -4 21 -26 -2 -21 -13 -30 -48 -44 -25 -9 -87
-43 -139 -74 -98 -58 -111 -59 -111 -8 0 33 -37 105 -69 136 -16 15 -46 34
-67 41 -22 8 -31 14 -21 15 10 0 45 -14 78 -31z m1333 -11 c-21 -38 -56 -75
-85 -92 -22 -13 -30 -15 -22 -5 6 8 14 31 18 52 7 36 28 50 38 25 3 -9 12 -6
28 10 26 25 34 28 23 10z m-1874 -107 l25 -7 -31 -17 c-17 -9 -48 -41 -70 -73
l-39 -57 -1 -191 0 -191 -75 -8 c-41 -5 -93 -6 -116 -2 l-41 6 -7 92 c-10 138
-2 414 12 428 22 22 282 37 343 20z m448 -23 c14 -14 16 -84 3 -92 -9 -6 -81
67 -81 82 0 24 57 31 78 10z m449 -90 c-3 -8 -6 -5 -6 6 -1 11 2 17 5 13 3 -3
4 -12 1 -19z m4451 -107 c-76 -71 -121 -140 -132 -201 -5 -32 -13 -39 -66 -63
-32 -15 -80 -43 -105 -62 -25 -19 -47 -35 -49 -35 -5 0 37 113 67 182 21 48
83 157 116 207 5 8 46 19 102 26 154 21 150 24 67 -54z m-4023 -36 c32 -31 31
-57 -5 -130 -17 -33 -30 -70 -30 -82 0 -28 -24 -30 -77 -8 -50 21 -62 42 -63
102 0 83 26 117 105 136 38 9 46 7 70 -18z m535 0 c11 -10 17 -22 14 -26 -3
-5 -1 -9 5 -9 18 0 28 -86 20 -176 -4 -49 -8 -152 -8 -229 -1 -130 -3 -144
-27 -195 -35 -73 -44 -192 -20 -273 9 -32 21 -57 26 -57 6 0 10 -63 11 -157 0
-87 4 -241 8 -343 7 -205 16 -237 76 -271 28 -16 35 -16 111 0 77 17 139 18
149 1 3 -5 -8 -20 -25 -33 -27 -23 -30 -32 -30 -79 1 -29 4 -72 9 -95 l8 -41
-36 -4 c-63 -6 -83 1 -78 25 3 12 2 31 -3 42 -6 17 -8 16 -14 -12 -4 -18 -4
-37 -1 -44 5 -7 -6 -9 -36 -4 -24 3 -96 12 -159 18 l-115 13 3 39 c2 32 0 37
-8 23 -19 -31 -32 -21 -25 20 5 30 2 44 -15 65 -25 31 -46 35 -54 10 -7 -27
-30 -137 -31 -148 0 -18 -18 -23 -112 -30 -98 -7 -111 -2 -79 34 15 17 76 158
76 175 0 6 11 26 25 45 49 71 55 125 62 553 3 219 8 397 9 395 2 -2 17 -75 34
-162 47 -246 53 -262 78 -207 7 16 29 48 49 71 l36 43 -22 67 c-19 56 -24 100
-32 296 -8 186 -14 242 -30 293 -23 70 -35 75 -91 42 -37 -21 -52 -17 -63 20
-4 14 -16 37 -26 51 l-18 26 41 12 c42 13 173 95 197 125 8 10 12 34 9 67 l-3
51 43 -5 c24 -2 52 -13 62 -22z m1324 -92 c-16 -24 -23 -46 -20 -62 3 -14 8
-48 11 -76 4 -27 15 -68 26 -91 l19 -41 -24 -65 c-13 -35 -32 -99 -41 -142
-24 -120 -38 -431 -31 -710 6 -220 5 -248 -9 -242 -15 5 -56 -14 -127 -62 -46
-30 -77 -105 -85 -204 -4 -51 -11 -72 -27 -87 -54 -50 -177 -69 -261 -41 -22
7 -62 34 -90 59 -27 26 -63 53 -78 61 -40 20 -30 42 28 59 42 12 63 12 130 1
118 -19 135 -17 166 18 36 40 46 98 54 298 4 102 12 179 22 210 9 30 18 109
22 209 6 150 9 164 37 225 17 36 50 97 74 135 74 120 92 162 97 228 5 54 1 74
-26 141 -17 42 -31 79 -31 82 0 2 8 4 18 4 11 0 36 -19 58 -42 35 -38 39 -40
42 -21 2 11 -4 37 -12 57 l-15 35 46 51 c24 27 47 50 49 50 2 0 -8 -17 -22
-37z m-2305 -18 c6 -3 11 -12 11 -18 0 -7 -9 -1 -20 13 -11 14 -19 32 -19 40
0 9 4 6 9 -6 5 -12 13 -25 19 -29z m5000 0 c6 -3 11 -12 11 -18 0 -7 -9 -1
-20 13 -11 14 -19 32 -19 40 0 9 4 6 9 -6 5 -12 13 -25 19 -29z m-5045 -65 c8
0 19 -7 24 -15 10 -19 39 -10 45 13 2 10 3 -21 2 -68 -1 -47 -8 -98 -15 -113
-15 -31 -68 -64 -79 -50 -18 21 -28 62 -25 98 2 23 -4 56 -16 83 -22 49 -26
87 -10 97 6 3 10 18 11 33 0 23 4 18 24 -25 13 -30 30 -53 39 -53z m5001 0 c8
0 18 -7 21 -15 4 -10 13 -13 24 -10 14 4 19 0 22 -17 2 -13 9 -22 17 -20 7 1
21 -9 32 -22 11 -14 26 -23 33 -20 8 3 20 -4 28 -15 8 -11 36 -45 64 -77 27
-31 66 -82 86 -113 29 -42 38 -51 38 -34 0 49 18 28 34 -40 25 -110 34 -227
25 -316 -13 -132 -10 -129 -125 -138 l-71 -6 13 74 c21 118 18 244 -7 295 -21
44 -60 87 -46 52 19 -50 16 -48 -27 12 -25 36 -46 70 -46 75 0 6 -12 24 -26
40 l-25 30 5 -30 c2 -16 8 -39 11 -50 4 -11 -7 7 -24 40 -16 33 -48 82 -71
109 -30 36 -38 54 -34 71 3 14 -3 43 -15 70 -23 51 -27 90 -11 100 6 3 10 18
11 33 0 23 4 18 24 -25 14 -32 30 -53 40 -53z m-418 28 c-3 -8 -6 -5 -6 6 -1
11 2 17 5 13 3 -3 4 -12 1 -19z m-4527 -22 c0 -3 -4 -8 -10 -11 -5 -3 -10 -1
-10 4 0 6 5 11 10 11 6 0 10 -2 10 -4z m5000 0 c0 -3 -4 -8 -10 -11 -5 -3 -10
-1 -10 4 0 6 5 11 10 11 6 0 10 -2 10 -4z m161 -23 c13 -16 12 -17 -3 -4 -10
7 -18 15 -18 17 0 8 8 3 21 -13z m-78 -57 c4 -10 1 -13 -9 -9 -7 3 -14 9 -14
14 0 14 17 10 23 -5z m-1722 -85 c32 -148 5 -321 -65 -409 -31 -38 -35 -41
-41 -23 -3 11 -21 31 -38 43 -38 26 -48 39 -43 53 2 6 -4 26 -13 45 -17 36
-25 39 -84 26 -20 -5 -28 -3 -26 6 1 7 1 25 0 41 -1 22 -6 27 -25 27 -14 0
-28 -4 -31 -10 -3 -5 -17 -10 -30 -10 -15 0 -26 -7 -30 -21 -11 -33 5 -160 26
-206 19 -41 24 -73 14 -73 -15 0 -63 31 -87 57 -54 57 -63 131 -23 198 30 53
82 79 147 77 44 -2 48 0 55 26 4 15 7 48 6 75 l-1 47 34 0 c45 0 151 49 189
87 26 26 32 28 42 15 7 -8 18 -40 24 -71z m1199 -1 c36 -6 85 -20 108 -31 59
-27 139 -103 168 -160 l23 -47 -194 -7 c-201 -7 -545 2 -545 15 0 24 120 150
143 150 2 0 26 12 53 28 38 21 128 53 174 61 3 0 34 -4 70 -9z m-834 -162 c48
-127 171 -253 187 -190 4 13 5 12 6 -5 3 -52 10 -53 491 -54 245 -1 436 -4
424 -6 -24 -5 -64 -70 -64 -104 1 -21 8 -17 55 35 30 32 52 63 49 67 -3 5 25
9 63 9 l68 -1 -48 -43 c-51 -46 -143 -96 -175 -96 -25 0 -40 -19 -48 -60 -6
-27 -3 -36 16 -50 21 -16 7 -17 -296 -23 -174 -4 -370 -7 -435 -7 -117 0 -119
0 -132 -26 -18 -35 2 -203 36 -296 69 -190 220 -342 398 -401 217 -73 484 -2
621 165 46 57 61 86 92 188 36 118 56 147 108 160 55 14 51 14 103 1 52 -13
71 -37 84 -106 23 -124 -35 -278 -150 -400 -108 -114 -314 -247 -292 -188 4
11 -6 7 -34 -10 -23 -14 -44 -23 -47 -20 -3 4 -6 1 -6 -5 0 -7 6 -12 13 -13 6
0 3 -4 -8 -9 -11 -4 -31 -6 -44 -3 -15 4 -28 0 -35 -9 -16 -22 -76 -32 -76
-13 0 18 -1 18 -37 4 -26 -10 -26 -12 -8 -19 12 -4 -11 -9 -65 -14 -86 -6
-199 3 -299 25 l-53 11 43 20 c43 20 43 20 19 30 -13 5 -69 11 -123 12 -90 4
-102 7 -153 37 -30 19 -63 43 -72 54 -9 11 -10 14 -2 7 8 -7 42 -12 81 -12 65
0 69 1 97 36 17 20 38 51 48 70 18 33 18 34 -6 59 -13 14 -25 23 -27 21 -2 -2
-16 -1 -31 4 -27 7 -82 -12 -82 -29 0 -5 -11 -11 -25 -13 -13 -3 -22 -1 -19 3
14 24 -26 4 -65 -31 -36 -34 -41 -43 -31 -55 7 -8 10 -15 6 -15 -12 0 -126
152 -160 213 -40 73 -80 186 -101 287 l-15 72 35 39 34 38 -21 48 c-11 26 -29
60 -39 75 -32 45 -22 225 22 403 23 93 92 249 97 219 2 -10 15 -49 28 -86z
m157 55 c24 -4 37 -2 37 6 0 6 7 11 15 11 8 0 15 -5 15 -12 0 -6 6 -19 14 -27
11 -14 10 -23 -10 -66 -22 -47 -24 -48 -24 -20 0 26 -10 39 -62 79 -35 27 -54
46 -43 42 11 -5 37 -10 58 -13z m-4496 -25 c-3 -8 -6 -5 -6 6 -1 11 2 17 5 13
3 -3 4 -12 1 -19z m4540 -150 c-3 -8 -6 -5 -6 6 -1 11 2 17 5 13 3 -3 4 -12 1
-19z m1257 -112 c3 -11 4 -21 3 -21 -1 -1 -18 14 -37 32 l-35 33 32 -12 c17
-7 34 -21 37 -32z m-601 -460 c174 -3 321 -7 326 -11 5 -3 -10 -63 -34 -133
-39 -115 -47 -131 -89 -169 -62 -56 -123 -83 -212 -96 -232 -34 -431 101 -499
336 -9 32 -15 61 -12 63 10 10 96 20 147 18 30 -2 198 -6 373 -8z m-4150 -536
c17 0 19 -2 8 -9 -8 -5 -11 -16 -8 -25 6 -16 -19 -115 -33 -130 -11 -11 4 -41
34 -74 l21 -23 -47 3 c-25 2 -44 6 -42 9 2 3 -12 11 -31 17 -26 7 -33 7 -29
-1 4 -7 -4 -2 -16 10 -33 31 -42 111 -19 163 15 33 25 41 66 54 26 8 54 13 61
10 8 -2 23 -4 35 -4z m-2497 -17 c-2 -10 -8 -41 -11 -70 l-7 -51 65 -54 c69
-56 70 -66 2 -67 -34 -1 -47 6 -61 32 -9 16 -11 16 -24 -8 -21 -39 -44 -33
-36 10 6 31 4 35 -19 41 -14 3 -25 10 -25 15 0 5 -18 21 -40 35 -27 18 -40 34
-40 49 0 22 35 75 49 75 4 0 26 -16 50 -36 23 -20 43 -35 45 -33 2 2 1 20 -2
39 -5 29 -6 31 -11 13 l-6 -22 -12 24 c-11 25 -11 25 39 25 42 0 49 -3 44 -17z
m4706 -10 c25 -26 26 -57 2 -145 -16 -62 -21 -69 -52 -79 -18 -6 -35 -9 -37
-7 -2 2 5 33 16 68 21 68 28 148 15 169 -6 8 -21 10 -47 6 -27 -5 -39 -3 -39
5 0 22 117 7 142 -17z m-2165 -68 c3 -29 1 -45 -6 -45 -7 0 -11 21 -11 52 0
61 11 57 17 -7z m933 -64 c-7 -27 -22 -49 -45 -67 -58 -44 -60 -22 -4 48 30
36 55 64 57 63 2 -2 -2 -21 -8 -44z"/>
<path d="M1983 2291 c4 -18 7 -40 7 -48 0 -13 3 -13 15 -3 21 18 19 44 -7 66
l-21 19 6 -34z"/>
<path d="M3986 1231 c-3 -4 3 -26 14 -47 20 -40 25 -31 14 25 -6 30 -18 39
-28 22z"/>
<path d="M7630 2126 c0 -9 39 -13 51 -5 10 6 4 9 -18 9 -18 0 -33 -2 -33 -4z"/>
<path d="M6804 1363 c-15 -43 -32 -84 -37 -91 -13 -16 -6 -22 18 -16 11 3 30
21 43 40 12 18 28 34 36 34 7 0 19 7 26 15 10 12 8 22 -14 55 -14 22 -30 40
-35 40 -5 0 -21 -35 -37 -77z"/>
<path d="M7640 1079 c0 -8 12 -22 28 -31 15 -10 35 -23 45 -30 16 -11 22 -9
43 15 13 15 24 32 24 38 0 5 -24 9 -54 9 -30 0 -61 3 -70 6 -10 4 -16 1 -16
-7z"/>
<path d="M7438 1031 c-9 -11 -14 -22 -11 -25 4 -3 -1 -6 -11 -6 -11 0 -16 -6
-14 -17 5 -27 59 -28 135 -2 l65 21 -53 18 c-94 31 -94 31 -111 11z"/>
<path d="M7193 1032 c-9 -5 2 -15 32 -30 50 -24 60 -15 19 17 -30 23 -33 24
-51 13z"/>
</g>
</svg>
